<mxfile host="app.diagrams.net" modified="2025-09-06T00:00:00.000Z" version="24.7.3" type="device"><diagram id="c1ad850c" name="ERD"><mxGraphModel dx="1280" dy="720" grid="1" gridSize="10" guides="1" tooltips="1" connect="1" arrows="1" fold="1" page="1" pageScale="1" pageWidth="1920" pageHeight="1080" math="0"><root><mxCell id="0" /><mxCell id="1" parent="0" /><mxCell id="dbfb1d1f" value="User&lt;br/&gt;—&lt;br/&gt;UserId (PK)&lt;br/&gt;Email [UQ]&lt;br/&gt;DisplayName&lt;br/&gt;IsActive&lt;br/&gt;CreatedAt" style="rounded=1;whiteSpace=wrap;html=1;fillColor=#dae8fc;strokeColor=#6c8ebf;" vertex="1" parent="1"><mxGeometry x="40" y="40" width="200" height="120" as="geometry" /></mxCell><mxCell id="52d4d0e3" value="Role&lt;br/&gt;—&lt;br/&gt;RoleId (PK)&lt;br/&gt;Name [UQ]" style="rounded=1;whiteSpace=wrap;html=1;fillColor=#dae8fc;strokeColor=#6c8ebf;" vertex="1" parent="1"><mxGeometry x="40" y="180" width="200" height="120" as="geometry" /></mxCell><mxCell id="b90aabb0" value="UserRole&lt;br/&gt;—&lt;br/&gt;(UserId, RoleId) (PK,FK)" style="rounded=1;whiteSpace=wrap;html=1;fillColor=#dae8fc;strokeColor=#6c8ebf;" vertex="1" parent="1"><mxGeometry x="260" y="110" width="200" height="120" as="geometry" /></mxCell><mxCell id="cc07da5b" value="Customer&lt;br/&gt;—&lt;br/&gt;CustomerId (PK)&lt;br/&gt;Name&lt;br/&gt;Email" style="rounded=1;whiteSpace=wrap;html=1;fillColor=#dae8fc;strokeColor=#6c8ebf;" vertex="1" parent="1"><mxGeometry x="40" y="320" width="200" height="120" as="geometry" /></mxCell><mxCell id="1f9143ea" value="Supplier&lt;br/&gt;—&lt;br/&gt;SupplierId (PK)&lt;br/&gt;Name" style="rounded=1;whiteSpace=wrap;html=1;fillColor=#dae8fc;strokeColor=#6c8ebf;" vertex="1" parent="1"><mxGeometry x="40" y="460" width="200" height="120" as="geometry" /></mxCell><mxCell id="dd9291c5" value="OrderStatus&lt;br/&gt;—&lt;br/&gt;OrderStatusId (PK)&lt;br/&gt;Name [UQ]" style="rounded=1;whiteSpace=wrap;html=1;fillColor=#dae8fc;strokeColor=#6c8ebf;" vertex="1" parent="1"><mxGeometry x="260" y="320" width="200" height="120" as="geometry" /></mxCell><mxCell id="2aabf7bb" value="Product&lt;br/&gt;—&lt;br/&gt;ProductId (PK)&lt;br/&gt;SKU [UQ]&lt;br/&gt;Name&lt;br/&gt;CategoryId (FK)" style="rounded=1;whiteSpace=wrap;html=1;fillColor=#dae8fc;strokeColor=#6c8ebf;" vertex="1" parent="1"><mxGeometry x="260" y="40" width="200" height="120" as="geometry" /></mxCell><mxCell id="20f0cf34" value="Category&lt;br/&gt;—&lt;br/&gt;CategoryId (PK)&lt;br/&gt;Name [UQ]" style="rounded=1;whiteSpace=wrap;html=1;fillColor=#dae8fc;strokeColor=#6c8ebf;" vertex="1" parent="1"><mxGeometry x="260" y="460" width="200" height="120" as="geometry" /></mxCell><mxCell id="4414b1f9" value="Location&lt;br/&gt;—&lt;br/&gt;LocationId (PK)&lt;br/&gt;Code [UQ]" style="rounded=1;whiteSpace=wrap;html=1;fillColor=#dae8fc;strokeColor=#6c8ebf;" vertex="1" parent="1"><mxGeometry x="260" y="600" width="200" height="120" as="geometry" /></mxCell><mxCell id="7243245c" value="Order&lt;br/&gt;—&lt;br/&gt;OrderId (PK)&lt;br/&gt;OrderNumber [UQ]&lt;br/&gt;CustomerId (FK)&lt;br/&gt;CurrentStatusId (FK)&lt;br/&gt;CreatedAt" style="rounded=1;whiteSpace=wrap;html=1;fillColor=#dae8fc;strokeColor=#6c8ebf;" vertex="1" parent="1"><mxGeometry x="500" y="320" width="200" height="120" as="geometry" /></mxCell><mxCell id="922ec2cd" value="OrderLine&lt;br/&gt;—&lt;br/&gt;OrderLineId (PK)&lt;br/&gt;OrderId (FK)&lt;br/&gt;ProductId (FK)&lt;br/&gt;Quantity" style="rounded=1;whiteSpace=wrap;html=1;fillColor=#dae8fc;strokeColor=#6c8ebf;" vertex="1" parent="1"><mxGeometry x="740" y="320" width="200" height="120" as="geometry" /></mxCell><mxCell id="9e7a7fb8" value="OrderStatusHistory&lt;br/&gt;—&lt;br/&gt;OrderStatusHistoryId (PK)&lt;br/&gt;OrderId (FK)&lt;br/&gt;FromStatusId (FK)&lt;br/&gt;ToStatusId (FK)&lt;br/&gt;ChangedAt&lt;br/&gt;ChangedBy (FK)" style="rounded=1;whiteSpace=wrap;html=1;fillColor=#dae8fc;strokeColor=#6c8ebf;" vertex="1" parent="1"><mxGeometry x="740" y="180" width="200" height="120" as="geometry" /></mxCell><mxCell id="77efa74a" value="Receipt&lt;br/&gt;—&lt;br/&gt;ReceiptId (PK)&lt;br/&gt;SupplierId (FK)&lt;br/&gt;ReceivedAt&lt;br/&gt;ReceivedBy (FK)" style="rounded=1;whiteSpace=wrap;html=1;fillColor=#dae8fc;strokeColor=#6c8ebf;" vertex="1" parent="1"><mxGeometry x="500" y="460" width="200" height="120" as="geometry" /></mxCell><mxCell id="59bcf1fa" value="ReceiptLine&lt;br/&gt;—&lt;br/&gt;ReceiptLineId (PK)&lt;br/&gt;ReceiptId (FK)&lt;br/&gt;ProductId (FK)&lt;br/&gt;LocationId (FK)&lt;br/&gt;Quantity" style="rounded=1;whiteSpace=wrap;html=1;fillColor=#dae8fc;strokeColor=#6c8ebf;" vertex="1" parent="1"><mxGeometry x="740" y="460" width="200" height="120" as="geometry" /></mxCell><mxCell id="64f22170" value="Inventory&lt;br/&gt;—&lt;br/&gt;(ProductId, LocationId) (PK,FK)&lt;br/&gt;OnHandQty" style="rounded=1;whiteSpace=wrap;html=1;fillColor=#dae8fc;strokeColor=#6c8ebf;" vertex="1" parent="1"><mxGeometry x="500" y="600" width="200" height="120" as="geometry" /></mxCell><mxCell id="6dc47433" value="InventoryTransaction&lt;br/&gt;—&lt;br/&gt;InventoryTransactionId (PK)&lt;br/&gt;ProductId (FK)&lt;br/&gt;LocationId (FK)&lt;br/&gt;Quantity&lt;br/&gt;MovementType&lt;br/&gt;OccurredAt&lt;br/&gt;PerformedBy (FK)" style="rounded=1;whiteSpace=wrap;html=1;fillColor=#dae8fc;strokeColor=#6c8ebf;" vertex="1" parent="1"><mxGeometry x="740" y="600" width="200" height="120" as="geometry" /></mxCell><mxCell id="0f090e22" style="endArrow=block;endFill=1;strokeColor=#6c8ebf;" edge="1" parent="1" source="dbfb1d1f" target="b90aabb0"><mxGeometry relative="1" as="geometry" /></mxCell><mxCell id="3ceeb30f" style="endArrow=block;endFill=1;strokeColor=#6c8ebf;" edge="1" parent="1" source="52d4d0e3" target="b90aabb0"><mxGeometry relative="1" as="geometry" /></mxCell><mxCell id="1258a343" style="endArrow=block;endFill=1;strokeColor=#6c8ebf;" edge="1" parent="1" source="cc07da5b" target="7243245c"><mxGeometry relative="1" as="geometry" /></mxCell><mxCell id="2427f8b5" style="endArrow=block;endFill=1;strokeColor=#6c8ebf;" edge="1" parent="1" source="7243245c" target="922ec2cd"><mxGeometry relative="1" as="geometry" /></mxCell><mxCell id="73aac325" style="endArrow=block;endFill=1;strokeColor=#6c8ebf;" edge="1" parent="1" source="2aabf7bb" target="922ec2cd"><mxGeometry relative="1" as="geometry" /></mxCell><mxCell id="328bf0cb" style="endArrow=block;endFill=1;strokeColor=#6c8ebf;" edge="1" parent="1" source="dd9291c5" target="9e7a7fb8"><mxGeometry relative="1" as="geometry" /></mxCell><mxCell id="ac70e54c" style="endArrow=block;endFill=1;strokeColor=#6c8ebf;" edge="1" parent="1" source="7243245c" target="9e7a7fb8"><mxGeometry relative="1" as="geometry" /></mxCell><mxCell id="b86a38d8" style="endArrow=block;endFill=1;strokeColor=#6c8ebf;" edge="1" parent="1" source="dd9291c5" target="7243245c"><mxGeometry relative="1" as="geometry" /></mxCell><mxCell id="035de27b" style="endArrow=block;endFill=1;strokeColor=#6c8ebf;" edge="1" parent="1" source="2aabf7bb" target="64f22170"><mxGeometry relative="1" as="geometry" /></mxCell><mxCell id="a72c2124" style="endArrow=block;endFill=1;strokeColor=#6c8ebf;" edge="1" parent="1" source="4414b1f9" target="64f22170"><mxGeometry relative="1" as="geometry" /></mxCell><mxCell id="2fa48495" style="endArrow=block;endFill=1;strokeColor=#6c8ebf;" edge="1" parent="1" source="2aabf7bb" target="6dc47433"><mxGeometry relative="1" as="geometry" /></mxCell><mxCell id="a19b4b9b" style="endArrow=block;endFill=1;strokeColor=#6c8ebf;" edge="1" parent="1" source="4414b1f9" target="6dc47433"><mxGeometry relative="1" as="geometry" /></mxCell><mxCell id="7c31676f" style="endArrow=block;endFill=1;strokeColor=#6c8ebf;" edge="1" parent="1" source="dbfb1d1f" target="6dc47433"><mxGeometry relative="1" as="geometry" /></mxCell><mxCell id="a0e2710a" style="endArrow=block;endFill=1;strokeColor=#6c8ebf;" edge="1" parent="1" source="1f9143ea" target="77efa74a"><mxGeometry relative="1" as="geometry" /></mxCell><mxCell id="a180ad00" style="endArrow=block;endFill=1;strokeColor=#6c8ebf;" edge="1" parent="1" source="77efa74a" target="59bcf1fa"><mxGeometry relative="1" as="geometry" /></mxCell><mxCell id="9c19a804" style="endArrow=block;endFill=1;strokeColor=#6c8ebf;" edge="1" parent="1" source="2aabf7bb" target="59bcf1fa"><mxGeometry relative="1" as="geometry" /></mxCell><mxCell id="bec9f5a7" style="endArrow=block;endFill=1;strokeColor=#6c8ebf;" edge="1" parent="1" source="4414b1f9" target="59bcf1fa"><mxGeometry relative="1" as="geometry" /></mxCell><mxCell id="cc7b6a5e" style="endArrow=block;endFill=1;strokeColor=#6c8ebf;" edge="1" parent="1" source="dbfb1d1f" target="77efa74a"><mxGeometry relative="1" as="geometry" /></mxCell><mxCell id="1d3a370f" style="endArrow=block;endFill=1;strokeColor=#6c8ebf;" edge="1" parent="1" source="20f0cf34" target="2aabf7bb"><mxGeometry relative="1" as="geometry" /></mxCell></root></mxGraphModel></diagram></mxfile>